<?xml version="1.0" encoding="UTF-8"?>
<svg width="583px" height="121px" viewBox="0 0 583 121" version="1.1" xmlns="http://www.w3.org/2000/svg" xmlns:xlink="http://www.w3.org/1999/xlink">
    <!-- Generator: Sketch 50.2 (55047) - http://www.bohemiancoding.com/sketch -->
    <title>Logos / Full / Full Color Black</title>
    <desc>Created with Sketch.</desc>
    <defs></defs>
    <g id="Logos-/-Full-/-Full-Color-Black" stroke="none" stroke-width="1" fill="none" fill-rule="evenodd">
        <g id="Group-3">
            <polygon id="Clip-2" points="0.000197572483 0.312095047 119.827 0.312095047 119.827 120.94 0.000197572483 120.94"></polygon>
            <path d="M55.587,76.182 C54.095,79.93 53.277,84.013 53.277,88.295 C53.277,106.354 67.926,121 85.989,121 C104.06,121 118.704,106.354 118.704,88.295 C118.704,70.224 105.763,60.878 105.763,60.878 C114.003,54.74 119.827,45.691 119.827,33.971 C119.827,15.39 104.463,0.445 85.893,0.445 C67.317,0.445 52.566,15.83 52.566,33.971 C52.566,52.112 39.217,53.836 32.112,53.836 C26.531,53.836 11.443,48.507 11.83,32.255 C12.567,17.105 25.661,11.963 33.076,11.963 C35.482,11.963 37.167,12.464 37.167,12.464 L45.446,2.977 C45.446,2.977 40.434,0.488 33.374,0.321 C16.161,-0.088 0.446,13.638 0.01,31.973 C-0.425,50.312 13.67,65.375 31.904,65.804 C50.144,66.239 59.098,54.015 59.098,54.015 C65.054,61.997 74.598,67.064 85.661,67.064 C97.916,67.064 106.68,76.908 106.68,88.386 C106.68,99.87 97.374,109.182 85.893,109.182 C74.409,109.182 65.103,99.87 65.103,88.386 C65.103,87.058 65.227,85.762 65.47,84.496 L55.587,76.182 M85.79,13.488 C74.591,13.488 65.51,22.57 65.51,33.766 C65.51,44.965 74.591,54.049 85.79,54.049 C96.99,54.049 106.069,44.965 106.069,33.766 C106.069,22.57 96.99,13.488 85.79,13.488" id="Fill-1" fill="#C8102E"></path>
        </g>
        <path d="M157.971,78.054 C156.191,78.983 152.245,80.297 147.215,80.297 C135.918,80.297 128.567,72.56 128.567,61.108 C128.567,49.577 136.459,41.221 148.685,41.221 C152.708,41.221 156.268,42.228 158.125,43.156 L156.578,48.418 C154.953,47.489 152.399,46.637 148.685,46.637 C140.096,46.637 135.453,52.982 135.453,60.797 C135.453,69.465 141.024,74.805 148.452,74.805 C152.323,74.805 154.875,73.798 156.81,72.945 L157.971,78.054" id="Fill-4" fill="#231F20"></path>
        <path d="M184.343,60.334 C176.915,60.178 168.481,61.494 168.481,68.768 C168.481,73.179 171.422,75.269 174.904,75.269 C179.779,75.269 182.873,72.171 183.956,69.001 C184.189,68.304 184.343,67.531 184.343,66.833 L184.343,60.334 Z M190.921,70.471 C190.921,73.719 191.075,76.894 191.54,79.446 L185.349,79.446 L184.808,74.727 L184.576,74.727 C182.488,77.668 178.463,80.297 173.124,80.297 C165.541,80.297 161.672,74.956 161.672,69.542 C161.672,60.489 169.72,55.537 184.189,55.615 L184.189,54.841 C184.189,51.745 183.338,46.174 175.678,46.174 C172.196,46.174 168.559,47.258 165.927,48.959 L164.381,44.47 C167.476,42.458 171.963,41.144 176.684,41.144 C188.136,41.144 190.921,48.959 190.921,56.463 L190.921,70.471 Z" id="Fill-5" fill="#231F20"></path>
        <path d="M199.992,52.133 C199.992,48.263 199.913,45.092 199.682,41.995 L205.64,41.995 L205.949,48.029 L206.182,48.029 C208.272,44.47 211.753,41.144 217.942,41.144 C223.05,41.144 226.919,44.24 228.543,48.651 L228.699,48.651 C229.86,46.559 231.329,44.937 232.877,43.774 C235.121,42.073 237.597,41.144 241.156,41.144 C246.109,41.144 253.459,44.396 253.459,57.393 L253.459,79.446 L246.805,79.446 L246.805,58.245 C246.805,51.048 244.174,46.715 238.681,46.715 C234.811,46.715 231.793,49.577 230.632,52.907 C230.323,53.834 230.092,55.071 230.092,56.311 L230.092,79.446 L223.437,79.446 L223.437,57.007 C223.437,51.048 220.806,46.715 215.622,46.715 C211.366,46.715 208.272,50.118 207.188,53.526 C206.8,54.53 206.645,55.692 206.645,56.852 L206.645,79.446 L199.992,79.446 L199.992,52.133" id="Fill-6" fill="#231F20"></path>
        <path d="M269.342,64.204 C269.342,65.209 269.497,66.138 269.651,66.989 C270.89,71.708 274.99,74.956 279.865,74.956 C287.061,74.956 291.24,69.078 291.24,60.489 C291.24,52.982 287.293,46.559 280.098,46.559 C275.455,46.559 271.122,49.889 269.807,54.996 C269.574,55.845 269.342,56.852 269.342,57.782 L269.342,64.204 Z M262.61,54.222 C262.61,49.422 262.455,45.555 262.301,41.995 L268.413,41.995 L268.724,48.418 L268.878,48.418 C271.663,43.852 276.074,41.144 282.187,41.144 C291.24,41.144 298.046,48.803 298.046,60.178 C298.046,73.642 289.847,80.297 281.026,80.297 C276.074,80.297 271.74,78.131 269.497,74.416 L269.342,74.416 L269.342,94.766 L262.61,94.766 L262.61,54.222 Z" id="Fill-7" fill="#231F20"></path>
        <path d="M345.68,77.125 C342.659,78.209 336.703,79.987 329.659,79.987 C321.768,79.987 315.271,77.975 310.16,73.101 C305.672,68.768 302.886,61.805 302.886,53.678 C302.966,38.125 313.642,26.75 331.131,26.75 C337.169,26.75 341.888,28.068 344.132,29.151 L342.504,34.643 C339.719,33.406 336.237,32.399 330.976,32.399 C318.287,32.399 310.005,40.292 310.005,53.37 C310.005,66.601 317.975,74.416 330.125,74.416 C334.533,74.416 337.554,73.798 339.102,73.024 L339.102,57.47 L328.501,57.47 L328.501,52.055 L345.68,52.055 L345.68,77.125" id="Fill-8" fill="#231F20"></path>
        <polygon id="Fill-9" fill="#231F20" points="354.675 79.446 361.484 79.446 361.484 24.509 354.675 24.509"></polygon>
        <path d="M390.748,60.334 C383.318,60.178 374.887,61.494 374.887,68.768 C374.887,73.179 377.821,75.269 381.303,75.269 C386.184,75.269 389.274,72.171 390.362,69.001 C390.593,68.304 390.748,67.531 390.748,66.833 L390.748,60.334 Z M397.326,70.471 C397.326,73.719 397.481,76.894 397.942,79.446 L391.754,79.446 L391.208,74.727 L390.977,74.727 C388.889,77.668 384.866,80.297 379.526,80.297 C371.946,80.297 368.073,74.956 368.073,69.542 C368.073,60.489 376.124,55.537 390.593,55.615 L390.593,54.841 C390.593,51.745 389.74,46.174 382.08,46.174 C378.598,46.174 374.962,47.258 372.331,48.959 L370.783,44.47 C373.88,42.458 378.369,41.144 383.088,41.144 C394.541,41.144 397.326,48.959 397.326,56.463 L397.326,70.471 Z" id="Fill-10" fill="#231F20"></path>
        <path d="M432.333,57.238 C432.333,56.389 432.253,55.226 432.022,54.374 C431.016,50.044 427.304,46.484 422.193,46.484 C415.154,46.484 410.977,52.674 410.977,60.952 C410.977,68.535 414.688,74.805 422.037,74.805 C426.607,74.805 430.785,71.787 432.022,66.678 C432.253,65.749 432.333,64.822 432.333,63.738 L432.333,57.238 Z M439.142,24.509 L439.142,69.775 C439.142,73.101 439.216,76.894 439.452,79.446 L433.34,79.446 L433.03,72.945 L432.874,72.945 C430.785,77.125 426.221,80.297 420.104,80.297 C411.051,80.297 404.088,72.638 404.088,61.263 C404.012,48.803 411.748,41.144 420.881,41.144 C426.607,41.144 430.474,43.852 432.177,46.87 L432.333,46.87 L432.333,24.509 L439.142,24.509 Z" id="Fill-11" fill="#231F20"></path>
        <path d="M448.522,79.446 L455.331,79.446 L455.331,41.995 L448.522,41.995 L448.522,79.446 Z M456.102,31.473 C456.182,33.795 454.478,35.65 451.767,35.65 C449.374,35.65 447.671,33.795 447.671,31.473 C447.671,29.073 449.448,27.217 451.923,27.217 C454.478,27.217 456.102,29.073 456.102,31.473 Z" id="Fill-12" fill="#231F20"></path>
        <path d="M484.358,60.334 C476.929,60.178 468.498,61.494 468.498,68.768 C468.498,73.179 471.433,75.269 474.915,75.269 C479.794,75.269 482.886,72.171 483.973,69.001 C484.203,68.304 484.358,67.531 484.358,66.833 L484.358,60.334 Z M490.936,70.471 C490.936,73.719 491.091,76.894 491.552,79.446 L485.366,79.446 L484.818,74.727 L484.589,74.727 C482.499,77.668 478.477,80.297 473.136,80.297 C465.557,80.297 461.683,74.956 461.683,69.542 C461.683,60.489 469.735,55.537 484.203,55.615 L484.203,54.841 C484.203,51.745 483.352,46.174 475.692,46.174 C472.21,46.174 468.572,47.258 465.942,48.959 L464.394,44.47 C467.49,42.458 471.979,41.144 476.698,41.144 C488.151,41.144 490.936,48.959 490.936,56.463 L490.936,70.471 Z" id="Fill-13" fill="#231F20"></path>
        <path d="M507.885,33.021 L507.885,41.995 L517.64,41.995 L517.64,47.181 L507.885,47.181 L507.885,67.375 C507.885,72.016 509.203,74.649 512.995,74.649 C514.855,74.649 515.937,74.493 516.943,74.183 L517.248,79.291 C515.937,79.831 513.847,80.297 511.217,80.297 C508.04,80.297 505.49,79.213 503.863,77.357 C501.928,75.346 501.231,72.016 501.231,67.607 L501.231,47.181 L495.431,47.181 L495.431,41.995 L501.231,41.995 L501.231,35.109 L507.885,33.021" id="Fill-14" fill="#231F20"></path>
        <path d="M527.037,60.797 C527.037,69.001 531.757,75.19 538.414,75.19 C544.913,75.19 549.787,69.078 549.787,60.645 C549.787,54.3 546.616,46.251 538.57,46.251 C530.519,46.251 527.037,53.678 527.037,60.797 Z M556.75,60.412 C556.75,74.261 547.156,80.297 538.104,80.297 C527.969,80.297 520.154,72.868 520.154,61.031 C520.154,48.496 528.356,41.144 538.725,41.144 C549.477,41.144 556.75,48.959 556.75,60.412 Z" id="Fill-15" fill="#231F20"></path>
        <path d="M563.8,53.678 C563.8,49.27 563.72,45.477 563.489,41.995 L569.446,41.995 L569.682,49.347 L569.987,49.347 C571.691,44.318 575.794,41.144 580.357,41.144 C581.134,41.144 581.675,41.221 582.291,41.377 L582.291,47.799 C581.594,47.644 580.898,47.566 579.972,47.566 C575.173,47.566 571.77,51.204 570.838,56.311 C570.683,57.238 570.533,58.323 570.533,59.482 L570.533,79.446 L563.8,79.446 L563.8,53.678" id="Fill-16" fill="#231F20"></path>
    </g>
</svg>