<svg width="583" height="121" viewBox="0 0 583 121" fill="none" xmlns="http://www.w3.org/2000/svg">
<path fill-rule="evenodd" clip-rule="evenodd" d="M55.5868 75.8699C54.0948 79.6179 53.2768 83.7009 53.2768 87.9829C53.2768 106.042 67.9258 120.688 85.9888 120.688C104.06 120.688 118.704 106.042 118.704 87.9829C118.704 69.9119 105.763 60.5659 105.763 60.5659C114.003 54.4279 119.827 45.3789 119.827 33.6589C119.827 15.0779 104.463 0.132905 85.8928 0.132905C67.3168 0.132905 52.5658 15.5179 52.5658 33.6589C52.5658 51.7999 39.2168 53.5239 32.1118 53.5239C26.5308 53.5239 11.4428 48.1949 11.8298 31.9429C12.5668 16.7929 25.6608 11.6509 33.0758 11.6509C35.4818 11.6509 37.1668 12.1519 37.1668 12.1519L45.4458 2.6649C45.4458 2.6649 40.4338 0.175905 33.3738 0.00890495C16.1608 -0.400095 0.445802 13.3259 0.00980243 31.6609C-0.425198 49.9999 13.6698 65.0629 31.9038 65.4919C50.1438 65.9269 59.0978 53.7029 59.0978 53.7029C65.0538 61.6849 74.5978 66.7519 85.6608 66.7519C97.9158 66.7519 106.68 76.5959 106.68 88.0739C106.68 99.5579 97.3738 108.87 85.8928 108.87C74.4088 108.87 65.1028 99.5579 65.1028 88.0739C65.1028 86.7459 65.2268 85.4499 65.4698 84.1839L55.5868 75.8699ZM85.7898 13.1759C74.5908 13.1759 65.5098 22.2579 65.5098 33.4539C65.5098 44.6529 74.5908 53.7369 85.7898 53.7369C96.9898 53.7369 106.069 44.6529 106.069 33.4539C106.069 22.2579 96.9898 13.1759 85.7898 13.1759Z" fill="#C8102E"/>
<path fill-rule="evenodd" clip-rule="evenodd" d="M157.971 77.7419C156.191 78.6709 152.245 79.9849 147.215 79.9849C135.918 79.9849 128.567 72.2479 128.567 60.7959C128.567 49.2649 136.459 40.9089 148.685 40.9089C152.708 40.9089 156.268 41.9159 158.125 42.8439L156.578 48.1059C154.953 47.1769 152.399 46.3249 148.685 46.3249C140.096 46.3249 135.453 52.6699 135.453 60.4849C135.453 69.1529 141.024 74.4929 148.452 74.4929C152.323 74.4929 154.875 73.4859 156.81 72.6329L157.971 77.7419Z" fill="white"/>
<path fill-rule="evenodd" clip-rule="evenodd" d="M184.343 60.0219C176.915 59.8659 168.481 61.1819 168.481 68.4559C168.481 72.8669 171.422 74.9569 174.904 74.9569C179.779 74.9569 182.873 71.8589 183.956 68.6889C184.189 67.9919 184.343 67.2189 184.343 66.5209V60.0219ZM190.921 70.1589C190.921 73.4069 191.075 76.5819 191.54 79.1339H185.349L184.808 74.4149H184.576C182.488 77.3559 178.463 79.9849 173.124 79.9849C165.541 79.9849 161.672 74.6439 161.672 69.2299C161.672 60.1769 169.72 55.2249 184.189 55.3029V54.5289C184.189 51.4329 183.338 45.8619 175.678 45.8619C172.196 45.8619 168.559 46.9459 165.927 48.6469L164.381 44.1579C167.476 42.1459 171.963 40.8319 176.684 40.8319C188.136 40.8319 190.921 48.6469 190.921 56.1509V70.1589Z" fill="white"/>
<path fill-rule="evenodd" clip-rule="evenodd" d="M199.992 51.8209C199.992 47.9509 199.913 44.7799 199.682 41.6829H205.64L205.949 47.7169H206.182C208.272 44.1579 211.753 40.8319 217.942 40.8319C223.05 40.8319 226.919 43.9279 228.543 48.3389H228.699C229.86 46.2469 231.329 44.6249 232.877 43.4619C235.121 41.7609 237.597 40.8319 241.156 40.8319C246.109 40.8319 253.459 44.0839 253.459 57.0809V79.1339H246.805V57.9329C246.805 50.7359 244.174 46.4029 238.681 46.4029C234.811 46.4029 231.793 49.2649 230.632 52.5949C230.323 53.5219 230.092 54.7589 230.092 55.9989V79.1339H223.437V56.6949C223.437 50.7359 220.806 46.4029 215.622 46.4029C211.366 46.4029 208.272 49.8059 207.188 53.2139C206.8 54.2179 206.645 55.3799 206.645 56.5399V79.1339H199.992V51.8209Z" fill="white"/>
<path fill-rule="evenodd" clip-rule="evenodd" d="M269.342 63.8919C269.342 64.8969 269.497 65.8259 269.651 66.6769C270.89 71.3959 274.99 74.6439 279.865 74.6439C287.061 74.6439 291.24 68.7659 291.24 60.1769C291.24 52.6699 287.293 46.2469 280.098 46.2469C275.455 46.2469 271.122 49.5769 269.807 54.6839C269.574 55.5329 269.342 56.5399 269.342 57.4699V63.8919ZM262.61 53.9099C262.61 49.1099 262.455 45.2429 262.301 41.6829H268.413L268.724 48.1059H268.878C271.663 43.5399 276.074 40.8319 282.187 40.8319C291.24 40.8319 298.046 48.4909 298.046 59.8659C298.046 73.3299 289.847 79.9849 281.026 79.9849C276.074 79.9849 271.74 77.8189 269.497 74.1039H269.342V94.4539H262.61V53.9099Z" fill="white"/>
<path fill-rule="evenodd" clip-rule="evenodd" d="M345.68 76.8129C342.659 77.8969 336.703 79.6749 329.659 79.6749C321.768 79.6749 315.271 77.6629 310.16 72.7889C305.672 68.4559 302.886 61.4929 302.886 53.3659C302.966 37.8129 313.642 26.4379 331.131 26.4379C337.169 26.4379 341.888 27.7559 344.132 28.8389L342.504 34.3309C339.719 33.0939 336.237 32.0869 330.976 32.0869C318.287 32.0869 310.005 39.9799 310.005 53.0579C310.005 66.2889 317.975 74.1039 330.125 74.1039C334.533 74.1039 337.554 73.4859 339.102 72.7119V57.1579H328.501V51.7429H345.68V76.8129Z" fill="white"/>
<path fill-rule="evenodd" clip-rule="evenodd" d="M354.675 79.1339H361.484V24.1969H354.675V79.1339Z" fill="white"/>
<path fill-rule="evenodd" clip-rule="evenodd" d="M390.748 60.0219C383.318 59.8659 374.887 61.1819 374.887 68.4559C374.887 72.8669 377.821 74.9569 381.303 74.9569C386.184 74.9569 389.274 71.8589 390.362 68.6889C390.593 67.9919 390.748 67.2189 390.748 66.5209V60.0219ZM397.326 70.1589C397.326 73.4069 397.481 76.5819 397.942 79.1339H391.754L391.208 74.4149H390.977C388.889 77.3559 384.866 79.9849 379.526 79.9849C371.946 79.9849 368.073 74.6439 368.073 69.2299C368.073 60.1769 376.124 55.2249 390.593 55.3029V54.5289C390.593 51.4329 389.74 45.8619 382.08 45.8619C378.598 45.8619 374.962 46.9459 372.331 48.6469L370.783 44.1579C373.88 42.1459 378.369 40.8319 383.088 40.8319C394.541 40.8319 397.326 48.6469 397.326 56.1509V70.1589Z" fill="white"/>
<path fill-rule="evenodd" clip-rule="evenodd" d="M432.333 56.9259C432.333 56.0769 432.253 54.9139 432.022 54.0619C431.016 49.7319 427.304 46.1719 422.193 46.1719C415.154 46.1719 410.977 52.3619 410.977 60.6399C410.977 68.2229 414.688 74.4929 422.037 74.4929C426.607 74.4929 430.785 71.4749 432.022 66.3659C432.253 65.4369 432.333 64.5099 432.333 63.4259V56.9259ZM439.142 24.1969V69.4629C439.142 72.7889 439.216 76.5819 439.452 79.1339H433.34L433.03 72.6329H432.874C430.785 76.8129 426.221 79.9849 420.104 79.9849C411.051 79.9849 404.088 72.3259 404.088 60.9509C404.012 48.4909 411.748 40.8319 420.881 40.8319C426.607 40.8319 430.474 43.5399 432.177 46.5579H432.333V24.1969H439.142Z" fill="white"/>
<path fill-rule="evenodd" clip-rule="evenodd" d="M448.522 79.1339H455.331V41.6829H448.522V79.1339ZM456.102 31.1609C456.182 33.4829 454.478 35.3379 451.767 35.3379C449.374 35.3379 447.671 33.4829 447.671 31.1609C447.671 28.7609 449.448 26.9049 451.923 26.9049C454.478 26.9049 456.102 28.7609 456.102 31.1609Z" fill="white"/>
<path fill-rule="evenodd" clip-rule="evenodd" d="M484.358 60.0219C476.929 59.8659 468.498 61.1819 468.498 68.4559C468.498 72.8669 471.433 74.9569 474.915 74.9569C479.794 74.9569 482.886 71.8589 483.973 68.6889C484.203 67.9919 484.358 67.2189 484.358 66.5209V60.0219ZM490.936 70.1589C490.936 73.4069 491.091 76.5819 491.552 79.1339H485.366L484.818 74.4149H484.589C482.499 77.3559 478.477 79.9849 473.136 79.9849C465.557 79.9849 461.683 74.6439 461.683 69.2299C461.683 60.1769 469.735 55.2249 484.203 55.3029V54.5289C484.203 51.4329 483.352 45.8619 475.692 45.8619C472.21 45.8619 468.572 46.9459 465.942 48.6469L464.394 44.1579C467.49 42.1459 471.979 40.8319 476.698 40.8319C488.151 40.8319 490.936 48.6469 490.936 56.1509V70.1589Z" fill="white"/>
<path fill-rule="evenodd" clip-rule="evenodd" d="M507.885 32.7089V41.6829H517.64V46.8689H507.885V67.0629C507.885 71.7039 509.203 74.3369 512.995 74.3369C514.855 74.3369 515.937 74.1809 516.943 73.8709L517.248 78.9789C515.937 79.5189 513.847 79.9849 511.217 79.9849C508.04 79.9849 505.49 78.9009 503.863 77.0449C501.928 75.0339 501.231 71.7039 501.231 67.2949V46.8689H495.431V41.6829H501.231V34.7969L507.885 32.7089Z" fill="white"/>
<path fill-rule="evenodd" clip-rule="evenodd" d="M527.037 60.4849C527.037 68.6889 531.757 74.8779 538.414 74.8779C544.913 74.8779 549.787 68.7659 549.787 60.3329C549.787 53.9879 546.616 45.9389 538.57 45.9389C530.519 45.9389 527.037 53.3659 527.037 60.4849ZM556.75 60.0999C556.75 73.9489 547.156 79.9849 538.104 79.9849C527.969 79.9849 520.154 72.5559 520.154 60.7189C520.154 48.1839 528.356 40.8319 538.725 40.8319C549.477 40.8319 556.75 48.6469 556.75 60.0999Z" fill="white"/>
<path fill-rule="evenodd" clip-rule="evenodd" d="M563.8 53.3659C563.8 48.9579 563.72 45.1649 563.489 41.6829H569.446L569.682 49.0349H569.987C571.691 44.0059 575.794 40.8319 580.357 40.8319C581.134 40.8319 581.675 40.9089 582.291 41.0649V47.4869C581.594 47.3319 580.898 47.2539 579.972 47.2539C575.173 47.2539 571.77 50.8919 570.838 55.9989C570.683 56.9259 570.533 58.0109 570.533 59.1699V79.1339H563.8V53.3659Z" fill="white"/>
</svg>
