<svg width="120" height="121" viewBox="0 0 120 121" fill="none" xmlns="http://www.w3.org/2000/svg">
<path fill-rule="evenodd" clip-rule="evenodd" d="M55.5868 75.8699C54.0948 79.6179 53.2768 83.7009 53.2768 87.9829C53.2768 106.042 67.9258 120.688 85.9888 120.688C104.06 120.688 118.704 106.042 118.704 87.9829C118.704 69.9119 105.763 60.5659 105.763 60.5659C114.003 54.4279 119.827 45.3789 119.827 33.6589C119.827 15.0779 104.463 0.132905 85.8928 0.132905C67.3168 0.132905 52.5658 15.5179 52.5658 33.6589C52.5658 51.7999 39.2168 53.5239 32.1118 53.5239C26.5308 53.5239 11.4428 48.1949 11.8298 31.9429C12.5668 16.7929 25.6608 11.6509 33.0758 11.6509C35.4818 11.6509 37.1668 12.1519 37.1668 12.1519L45.4458 2.6649C45.4458 2.6649 40.4338 0.175905 33.3738 0.00890495C16.1608 -0.400095 0.445802 13.3259 0.00980243 31.6609C-0.425198 49.9999 13.6698 65.0629 31.9038 65.4919C50.1438 65.9269 59.0978 53.7029 59.0978 53.7029C65.0538 61.6849 74.5978 66.7519 85.6608 66.7519C97.9158 66.7519 106.68 76.5959 106.68 88.0739C106.68 99.5579 97.3738 108.87 85.8928 108.87C74.4088 108.87 65.1028 99.5579 65.1028 88.0739C65.1028 86.7459 65.2268 85.4499 65.4698 84.1839L55.5868 75.8699ZM85.7898 13.1759C74.5908 13.1759 65.5098 22.2579 65.5098 33.4539C65.5098 44.6529 74.5908 53.7369 85.7898 53.7369C96.9898 53.7369 106.069 44.6529 106.069 33.4539C106.069 22.2579 96.9898 13.1759 85.7898 13.1759Z" fill="white"/>
</svg>
